<?xml version="1.0" encoding="UTF-8"?>
<svg version="1.1" xmlns="http://www.w3.org/2000/svg" width="1024" height="1024">
<path d="M0 0 C2.08842855 -0.00187331 4.17685676 -0.00417606 6.26528442 -0.00686532 C11.94646007 -0.0129258 17.62762089 -0.01285659 23.30879903 -0.01167095 C29.45912348 -0.01146546 35.60944335 -0.01699977 41.75976562 -0.02172852 C53.78947412 -0.03000461 65.81917639 -0.03279503 77.84888698 -0.03334089 C87.63930868 -0.03380222 97.42972881 -0.0358698 107.22014999 -0.03904152 C110.04869171 -0.03993921 112.87723342 -0.04082903 115.70577514 -0.0417164 C116.76087396 -0.04204797 116.76087396 -0.04204797 117.83728792 -0.04238624 C137.5995234 -0.04853294 157.36175834 -0.05248758 177.12399483 -0.05204296 C178.23956772 -0.05201959 178.23956772 -0.05201959 179.37767745 -0.05199575 C183.14623722 -0.05191266 186.914797 -0.05181362 190.68335678 -0.05171105 C191.80581554 -0.05168113 191.80581554 -0.05168113 192.95095024 -0.05165061 C194.46420661 -0.05161017 195.97746297 -0.05156837 197.49071934 -0.05152521 C221.00406282 -0.05091325 244.51739185 -0.05840754 268.0307312 -0.07209778 C294.51505974 -0.08751187 320.99937878 -0.09606076 347.48371208 -0.09513456 C350.31665476 -0.09505994 353.14959745 -0.09501122 355.98254013 -0.09498024 C356.67995819 -0.09496859 357.37737624 -0.09495693 358.09592817 -0.09494492 C369.24239793 -0.09491435 380.38885497 -0.10125692 391.53532097 -0.1099125 C402.77139445 -0.11845616 414.00744991 -0.11915794 425.24352647 -0.11280318 C431.31154257 -0.10956629 437.3795134 -0.10937702 443.44752502 -0.11815643 C474.90695913 -0.16083705 506.40559194 -0.10318362 537.66305542 3.94621277 C538.32776855 4.02986084 538.99248169 4.11350891 539.67733765 4.19969177 C591.15880466 10.71091253 636.83983402 28.98177772 674.53805542 65.13371277 C675.0693103 65.63773621 675.60056519 66.14175964 676.1479187 66.66105652 C729.16674341 117.17617076 742.03627267 187.68610193 744.53805542 258.13371277 C744.69961679 265.28671321 744.67795296 272.44124731 744.67176819 279.59565735 C744.6736415 281.6840859 744.67594425 283.77251411 744.67863351 285.86094177 C744.68469399 291.54211742 744.68462477 297.22327824 744.68343914 302.90445638 C744.68323365 309.05478083 744.68876796 315.2051007 744.6934967 321.35542297 C744.7017728 333.38513147 744.70456321 345.41483373 744.70510908 357.44454433 C744.70557041 367.23496603 744.70763799 377.02538616 744.71080971 386.81580734 C744.7117074 389.64434906 744.71259722 392.47289077 744.71348459 395.30143249 C744.71370563 396.00483171 744.71392668 396.70823092 744.71415443 397.43294526 C744.72030113 417.19518075 744.72425577 436.95741569 744.72381115 456.71965218 C744.72379557 457.46336744 744.72377999 458.20708271 744.72376394 458.9733348 C744.72368085 462.74189457 744.72358181 466.51045435 744.72347923 470.27901413 C744.72344932 471.40147289 744.72344932 471.40147289 744.72341879 472.54660759 C744.72337836 474.05986396 744.72333656 475.57312032 744.7232934 477.08637669 C744.72268144 500.59972017 744.73017572 524.1130492 744.74386597 547.62638855 C744.75928006 574.11071709 744.76782895 600.59503613 744.76690274 627.07936943 C744.76682813 629.91231211 744.76677941 632.74525479 744.76674843 635.57819748 C744.76673677 636.27561553 744.76672512 636.97303359 744.76671311 637.69158552 C744.76668254 648.83805528 744.7730251 659.98451232 744.78168069 671.13097831 C744.79022435 682.3670518 744.79092613 693.60310726 744.78457137 704.83918382 C744.78133448 710.90719992 744.78114521 716.97517075 744.78992462 723.04318237 C744.83260524 754.50261648 744.77495181 786.00124929 740.72555542 817.25871277 C740.60008331 818.25578247 740.60008331 818.25578247 740.47207642 819.272995 C733.96085566 870.75446201 715.68999047 916.43549137 679.53805542 954.13371277 C679.03403198 954.66496765 678.53000854 955.19622253 678.01071167 955.74357605 C627.20747946 1009.06479889 556.32936562 1021.70316476 485.53805542 1024.13371277 C478.37241043 1024.29240791 471.20552152 1024.27365892 464.03851318 1024.26742554 C461.95818387 1024.26929926 459.8778549 1024.27160218 457.79752648 1024.27429086 C452.14334392 1024.28034616 446.48917627 1024.28028275 440.83499122 1024.27909648 C434.71193199 1024.27889087 428.58887735 1024.28442656 422.46582031 1024.28915405 C410.49139297 1024.29742725 398.51697189 1024.30022043 386.54254244 1024.30076643 C376.79648964 1024.30122789 367.05043842 1024.30329614 357.30438614 1024.30646706 C354.48791858 1024.30736476 351.67145101 1024.30825457 348.85498345 1024.30914193 C348.15457307 1024.30936298 347.45416268 1024.30958403 346.73252774 1024.30981178 C327.0563852 1024.3159578 307.3802432 1024.31991319 287.70409966 1024.3194685 C286.96374135 1024.31945292 286.22338304 1024.31943734 285.46058963 1024.31942129 C281.70910174 1024.3193382 277.95761385 1024.31923916 274.20612596 1024.31913658 C273.46121953 1024.31911664 272.7163131 1024.31909669 271.94883375 1024.31907614 C270.44245217 1024.3190357 268.93607058 1024.31899391 267.429689 1024.31895075 C244.02358486 1024.3183388 220.61749525 1024.32583315 197.21139526 1024.33952332 C170.84351226 1024.35493989 144.4756388 1024.36348615 118.10775101 1024.36256009 C115.28688248 1024.36248548 112.46601395 1024.36243676 109.64514542 1024.36240578 C108.95070759 1024.36239412 108.25626976 1024.36238247 107.54078836 1024.36237046 C96.44571185 1024.3623399 85.35064812 1024.36868029 74.25557539 1024.37733804 C63.07001597 1024.38588479 51.88447465 1024.38658123 40.69891213 1024.38022872 C34.65911883 1024.3769934 28.61937101 1024.37679665 22.57958221 1024.38558197 C-19.30059887 1024.44252872 -19.30059887 1024.44252872 -40.01831055 1023.23181152 C-40.6990088 1023.19214632 -41.37970706 1023.15248113 -42.08103253 1023.11161395 C-104.99587093 1019.31310711 -163.10634691 1003.58792027 -209.46194458 959.13371277 C-209.99319946 958.62968933 -210.52445435 958.12566589 -211.07180786 957.60636902 C-264.37638091 906.81900034 -277.03510802 835.91816715 -279.46194458 765.13371277 C-279.62057286 757.96806462 -279.60189073 750.80118103 -279.59565735 743.63417053 C-279.59753108 741.55384122 -279.59983399 739.47351225 -279.60252267 737.39318383 C-279.60857797 731.73900126 -279.60851456 726.08483362 -279.6073283 720.43064857 C-279.60712268 714.30758934 -279.61265837 708.1845347 -279.61738586 702.06147766 C-279.62565906 690.08705032 -279.62845225 678.11262924 -279.62899824 666.13819979 C-279.6294597 656.39214699 -279.63152795 646.64609577 -279.63469887 636.90004349 C-279.63559657 634.08357593 -279.63648639 631.26710836 -279.63737375 628.4506408 C-279.63759479 627.75023041 -279.63781584 627.04982003 -279.63804359 626.32818509 C-279.64418961 606.65204255 -279.648145 586.97590055 -279.64770031 567.299757 C-279.64768473 566.55939869 -279.64766915 565.81904038 -279.6476531 565.05624697 C-279.64757001 561.30475909 -279.64747097 557.5532712 -279.64736839 553.80178331 C-279.64734845 553.05687688 -279.6473285 552.31197045 -279.64730795 551.5444911 C-279.64726752 550.03810952 -279.64722572 548.53172793 -279.64718256 547.02534635 C-279.64657061 523.61924221 -279.65406496 500.2131526 -279.66775513 476.80705261 C-279.6831717 450.43916961 -279.69171797 424.07129615 -279.6907919 397.70340836 C-279.69071729 394.88253983 -279.69066857 392.0616713 -279.69063759 389.24080276 C-279.69062593 388.54636493 -279.69061428 387.8519271 -279.69060227 387.1364457 C-279.69057171 376.0413692 -279.6969121 364.94630547 -279.70556985 353.85123274 C-279.7141166 342.66567332 -279.71481305 331.48013199 -279.70846053 320.29456948 C-279.70522521 314.25477618 -279.70502846 308.21502836 -279.71381378 302.17523956 C-279.77076053 260.29505848 -279.77076053 260.29505848 -278.56004333 239.5773468 C-278.52037814 238.89664855 -278.48071294 238.21595029 -278.43984576 237.51462482 C-274.64133893 174.59978642 -258.91615208 116.48931044 -214.46194458 70.13371277 C-213.95792114 69.60245789 -213.45389771 69.071203 -212.93460083 68.52384949 C-167.54096515 20.88034221 -105.34262541 4.97295786 -41.46194458 1.13371277 C-40.78560345 1.09300068 -40.10926232 1.05228859 -39.41242601 1.0103428 C-26.2656826 0.23809213 -13.1672332 -0.01138267 0 0 Z " fill="#2D7921" transform="translate(279.4619445800781,-0.1337127685546875)"/>
<path d="M0 0 C1.53556127 0.00373578 3.07112494 0.00658008 4.60668945 0.00857544 C8.62455975 0.01616747 12.64228266 0.03577725 16.66009521 0.0579834 C20.76947029 0.07853791 24.87886945 0.08759759 28.98828125 0.09765625 C37.03392137 0.11902787 45.07944229 0.1531095 53.125 0.1953125 C49.95646887 3.40120062 46.82105687 6.33099675 43.21875 9.04296875 C42.30996094 9.73068359 41.40117187 10.41839844 40.46484375 11.12695312 C39.05912109 12.18172852 39.05912109 12.18172852 37.625 13.2578125 C35.76004202 14.66486815 33.89544701 16.07240505 32.03125 17.48046875 C30.79858398 18.40678101 30.79858398 18.40678101 29.54101562 19.35180664 C27.06692946 21.17967246 27.06692946 21.17967246 24.74145508 23.39819336 C21.41050204 25.68606733 19.3702366 25.67941639 15.35546875 25.6640625 C14.05416016 25.67824219 12.75285156 25.69242187 11.41210938 25.70703125 C9.36511389 25.70458415 7.31821457 25.69533847 5.27124023 25.68603516 C-3.91740344 25.67494713 -10.74695982 25.68105319 -17.8984375 31.9765625 C-18.34445313 32.54375 -18.79046875 33.1109375 -19.25 33.6953125 C-19.71148437 34.2625 -20.17296875 34.8296875 -20.6484375 35.4140625 C-22.93530276 38.73511523 -23.96980432 41.32837538 -24.43115234 45.33789062 C-24.65085693 47.24731445 -24.65085693 47.24731445 -24.875 49.1953125 C-23.59923265 49.19417334 -22.3234653 49.19303418 -21.00903833 49.1918605 C35.20111149 49.14186624 91.4112635 49.09558116 147.62142944 49.06828308 C148.47208258 49.06786891 149.32273571 49.06745474 150.19916621 49.06702802 C168.68501028 49.05804983 187.1708546 49.04973921 205.65669928 49.04211651 C214.7218165 49.03837442 223.78693366 49.03448477 232.85205078 49.03051758 C233.75415121 49.0301253 234.65625165 49.02973302 235.58568846 49.02932886 C264.83885197 49.01653897 294.09199812 48.99400069 323.34515111 48.96642084 C353.40013782 48.93813641 383.45511491 48.91965927 413.5101147 48.91356753 C417.75267796 48.91270303 421.99524119 48.91172612 426.23780441 48.91068077 C427.49033194 48.91037737 427.49033194 48.91037737 428.76816306 48.91006783 C442.22353709 48.90651915 455.67888146 48.89259545 469.13424339 48.8748164 C482.65301693 48.85717408 496.17176098 48.85040369 509.69054563 48.85480837 C517.72774439 48.85709453 525.76483545 48.85096749 533.80201482 48.83291987 C539.79559694 48.82037764 545.78906272 48.82341115 551.7826554 48.83261582 C554.21343542 48.83388904 556.64422437 48.83003454 559.07498665 48.82066295 C562.36811282 48.80870007 565.66070399 48.81506623 568.95382118 48.82616901 C569.90708375 48.81828797 570.86034631 48.81040693 571.84249562 48.80228707 C578.41570625 48.85268787 583.62598686 50.14337462 588.45742798 54.91517639 C592.92617775 60.52081707 591.90825368 67.88379703 591.80615234 74.67749023 C591.80445842 76.25485672 591.80541278 77.83222793 591.80880737 79.40959167 C591.81052487 83.67805371 591.7753157 87.94549865 591.73336363 92.21372485 C591.69578811 96.67930072 591.69232591 101.14490139 591.68521118 105.61061096 C591.6665823 114.06085188 591.617372 122.51062557 591.55711424 130.96066099 C591.48998797 140.58330688 591.45704475 150.20597539 591.42694163 159.82879722 C591.36427107 179.61789615 591.25877429 199.40657486 591.125 219.1953125 C590.04136484 219.20214931 588.95772968 219.20898613 587.8412571 219.21603012 C587.11908257 219.22058889 586.39690804 219.22514766 585.65284944 219.22984457 C584.02099312 219.24013515 582.38913667 219.25040533 580.75728011 219.26065683 C576.23744313 219.28908205 571.71760899 219.31787604 567.1977787 219.34734726 C558.70152706 219.40240702 550.20540277 219.45315931 541.70901108 219.48130035 C538.33999308 219.49645603 534.97128955 219.52781524 531.60244751 219.56488037 C529.96227664 219.579322 528.32202756 219.58625928 526.68179321 219.58685303 C508.70769927 219.6044669 492.4845413 222.84270405 478.70703125 235.48046875 C468.26356634 246.80066898 462.75041044 259.76656137 462.875 275.0703125 C462.86726562 276.01261719 462.85953125 276.95492188 462.8515625 277.92578125 C462.89354489 293.1024161 468.31711059 305.0252945 478.875 316.046875 C493.78316665 330.28210357 510.87204751 332.63443303 530.67578125 332.70703125 C532.42841315 332.72391503 534.18103322 332.74207011 535.93363953 332.76142883 C540.50206806 332.80853394 545.0704486 332.83859692 549.63903809 332.86486816 C554.3186999 332.89487516 558.9981969 332.94133521 563.67773438 332.98632812 C572.82673598 333.07191075 581.97577194 333.13945407 591.125 333.1953125 C591.17179239 349.98976124 591.20702425 366.78418954 591.22862434 383.57868862 C591.23892175 391.37726971 591.25295263 399.17581021 591.27587891 406.97436523 C591.2958599 413.77432107 591.30872759 420.5742475 591.31317699 427.37423187 C591.31577642 430.9722823 591.32185397 434.57024863 591.33646011 438.16827202 C591.35266165 442.19221549 591.35297667 446.21601422 591.35205078 450.23999023 C591.35924133 451.42322876 591.36643188 452.60646729 591.37384033 453.82556152 C591.33732135 468.51923312 587.01580781 479.01591669 577.125 490.0078125 C573.17398502 493.72520225 568.85761095 496.23964453 564.0625 498.6953125 C563.40185547 499.03409424 562.74121094 499.37287598 562.06054688 499.72192383 C554.46174627 503.35470028 546.61942199 503.34344396 538.33470535 503.32953358 C537.37345025 503.33188581 536.41219515 503.33423804 535.4218111 503.33666155 C532.19991747 503.34331993 528.97806447 503.34289428 525.75616455 503.34248352 C523.42317479 503.34578408 521.09018561 503.34951006 518.75719714 503.353625 C513.01732468 503.36258178 507.27746198 503.36686905 501.53758329 503.36914397 C494.66061733 503.3721121 487.78366155 503.38081293 480.90670094 503.38955825 C464.28860773 503.41037625 447.67051277 503.42086738 431.05240957 503.42968785 C423.18946568 503.43389722 415.32652256 503.43911875 407.46357931 503.44437238 C380.54171684 503.46225825 353.61985413 503.47725471 326.6979866 503.48469257 C325.00872574 503.48516733 323.31946487 503.48564322 321.63020401 503.48612024 C320.79249835 503.48635661 319.95479269 503.48659299 319.09170202 503.48683653 C314.84759301 503.4880377 310.603484 503.48925316 306.359375 503.49047852 C305.51712623 503.49071867 304.67487747 503.49095882 303.80710601 503.49120624 C276.49240284 503.49910118 249.17774306 503.52253924 221.86305884 503.55503446 C192.97582162 503.5893377 164.0886098 503.60904404 135.20135188 503.61233681 C132.02991278 503.61275435 128.85847369 503.61323391 125.68703461 503.61375999 C124.90615251 503.61388319 124.12527042 503.61400638 123.32072523 503.6141333 C110.75960675 503.61646438 98.19853874 503.63211883 85.63743823 503.65260184 C73.01121275 503.67286441 60.38504785 503.67833504 47.75880912 503.66883121 C40.91990952 503.66407683 34.08115933 503.66569017 27.24228287 503.68559265 C20.98004936 503.70317978 14.71809967 503.70226242 8.45586333 503.68669536 C6.19210506 503.6843126 3.92832737 503.68867731 1.66459885 503.70052401 C-16.52808874 503.78982402 -30.746924 501.84510246 -44.6875 488.8828125 C-54.23421396 478.67217838 -57.98972019 466.59846001 -58.00922108 452.82661247 C-58.01157331 452.11500174 -58.01392554 451.40339101 -58.01634905 450.67021632 C-58.0229931 448.29151169 -58.02258222 445.91286226 -58.02217102 443.53414917 C-58.02547249 441.8090806 -58.02919866 440.08401279 -58.0333125 438.35894597 C-58.04330805 433.62259879 -58.04704534 428.88626429 -58.04970181 424.14990807 C-58.05361202 419.03998148 -58.06318972 413.93006486 -58.07191467 408.82014465 C-58.09165675 396.4832587 -58.10174151 384.14637196 -58.11064246 371.80947417 C-58.11502824 365.99735281 -58.12039422 360.18523236 -58.12563133 354.37311172 C-58.14263981 335.04924394 -58.15713429 315.72537672 -58.16438007 296.40150261 C-58.1662899 291.38941319 -58.16821025 286.37732378 -58.17016602 281.36523438 C-58.17064976 280.11953533 -58.1711335 278.87383629 -58.1716319 277.59038879 C-58.17993344 257.40785893 -58.2052742 237.22538832 -58.23774669 217.04288433 C-58.27082482 196.3147813 -58.28882944 175.58670837 -58.29202431 154.8585788 C-58.29418848 143.22332783 -58.30292388 131.58816331 -58.32848549 119.95293808 C-58.35020257 110.04496177 -58.35823782 100.13709292 -58.34851871 90.2290955 C-58.34397725 85.17633746 -58.34585152 80.1238011 -58.36528015 75.07107353 C-58.38293501 70.43955454 -58.38189524 65.80841859 -58.36638286 61.17689539 C-58.36401035 59.50729694 -58.36831169 57.83767179 -58.38021151 56.16811405 C-58.48519674 40.45712503 -55.61023023 27.06159843 -44.9140625 14.98046875 C-32.09855943 2.56991652 -17.0961826 -0.12265953 0 0 Z " fill="#FEFEFE" transform="translate(220.875,351.8046875)"/>
<path d="M0 0 C4.00039894 3.74992673 7.03014446 7.69531019 10.0625 12.25 C11.03421158 13.68553573 12.00690064 15.1204102 12.98046875 16.5546875 C13.47853027 17.29041992 13.9765918 18.02615234 14.48974609 18.78417969 C16.9139811 22.34097842 19.39048135 25.86014528 21.875 29.375 C22.37217529 30.07874756 22.86935059 30.78249512 23.3815918 31.50756836 C27.01242601 36.63375975 30.68798246 41.72663212 34.375 46.8125 C40.79559044 55.66984958 47.06428792 64.62980202 53.32421875 73.60107422 C55.89528293 77.28162151 58.4759655 80.9553113 61.0625 84.625 C61.54074219 85.3041748 62.01898437 85.98334961 62.51171875 86.68310547 C65.15557782 90.42650512 67.82836743 94.14661678 70.53125 97.84765625 C71.120271 98.6557373 71.70929199 99.46381836 72.31616211 100.29638672 C73.44832701 101.8465647 74.58432908 103.39395035 75.72485352 104.93798828 C78.5617903 108.82207478 80.99712006 112.59920844 83 117 C65.46670627 124.63452664 47.82555527 131.95780563 30.09217834 139.11328125 C29.29992355 139.43296875 28.50766876 139.75265625 27.69140625 140.08203125 C26.89500229 140.40333008 26.09859833 140.72462891 25.27806091 141.05566406 C16.37968549 144.64876118 7.50150619 148.29078143 -1.375 151.9375 C-2.18192291 152.26890991 -2.98884583 152.60031982 -3.82022095 152.94177246 C-7.91125859 154.62202279 -12.00208464 156.3027873 -16.09277344 157.98388672 C-23.41536002 160.99282728 -30.74001469 163.99672677 -38.06451416 167.00100708 C-42.12642748 168.66713159 -46.18820696 170.3335823 -50.25 172 C-51.87499936 172.66666823 -53.49999936 173.3333349 -55.125 174 C-55.929375 174.33 -56.73375 174.66 -57.5625 175 C-61.21875 176.5 -61.21875 176.5 -64.875 178 C-65.67932465 178.32997986 -66.48364929 178.65995972 -67.31234741 178.99993896 C-68.93785457 179.66681265 -70.5633632 180.33368277 -72.18887329 181.00054932 C-76.24362574 182.66401929 -80.29835295 184.32755072 -84.35302734 185.99121094 C-91.75678154 189.02894922 -99.16073339 192.06620168 -106.56561279 195.10119629 C-109.94301124 196.4855159 -113.3202646 197.87018928 -116.69750977 199.25488281 C-118.25749738 199.89437889 -119.81755048 200.53371527 -121.37768555 201.17285156 C-122.80121153 201.75603238 -124.22437685 202.34009462 -125.64711857 202.92518616 C-127.14948098 203.53959831 -128.65412941 204.14847149 -130.16172695 204.74992371 C-134.94428471 206.67502465 -139.61159584 208.75176427 -144.25868225 210.98510742 C-162.23675008 219.3807533 -177.17750314 221.66113976 -197.17578125 221.171875 C-199.93682398 221.1425738 -202.69786297 221.13177477 -205.45903015 221.12042236 C-211.89436903 221.08369735 -218.3271465 220.98604971 -224.76137656 220.86422849 C-232.10857981 220.72825908 -239.45593138 220.66366957 -246.80408728 220.60388327 C-261.87079826 220.47975923 -276.93513838 220.26986944 -292 220 C-288.97914626 216.94881171 -286.00952318 214.09738346 -282.5859375 211.50390625 C-281.75255859 210.87033203 -280.91917969 210.23675781 -280.06054688 209.58398438 C-279.17431641 208.91689453 -278.28808594 208.24980469 -277.375 207.5625 C-276.44494141 206.85802734 -275.51488281 206.15355469 -274.55664062 205.42773438 C-267.80253406 200.32432595 -260.99637947 195.29392505 -254.16748047 190.29125977 C-248.22523395 185.92913582 -242.35358574 181.48021764 -236.5 177 C-228.9943524 171.25628366 -221.43312357 165.59794097 -213.8125 160.0078125 C-208.85201802 156.36846391 -203.91521683 152.70023321 -199 149 C-193.30027261 144.70917798 -187.56499947 140.46976112 -181.8125 136.25 C-174.08436511 130.57681778 -166.44997046 124.78860854 -158.8371582 118.96191406 C-152.33460185 113.99377647 -145.76570244 109.12437737 -139.1640625 104.2890625 C-133.22328567 99.92722968 -127.3524674 95.47945452 -121.5 91 C-114.11358208 85.34646605 -106.66805534 79.78529806 -99.1640625 74.2890625 C-93.22328567 69.92722968 -87.3524674 65.47945452 -81.5 61 C-74.11358208 55.34646605 -66.66805534 49.78529806 -59.1640625 44.2890625 C-53.22328473 39.92722899 -47.35249694 35.47941731 -41.5 31 C-33.16519591 24.62134696 -24.75182247 18.35987543 -16.2890625 12.15234375 C-10.82668706 8.14490009 -5.40807564 4.08034449 0 0 Z " fill="#FEFEFE" transform="translate(551,169)"/>
<path d="M0 0 C11.52722433 -0.09300741 23.05435821 -0.16392041 34.58188248 -0.20724869 C39.9355833 -0.22805249 45.28902588 -0.25623755 50.64257812 -0.30175781 C55.81677511 -0.34547373 60.99072494 -0.3691912 66.16509247 -0.37950897 C68.13130326 -0.38685436 70.09750175 -0.40119727 72.06360626 -0.42292023 C89.80949084 -0.61104987 104.46302444 2.20326017 117.86328125 14.71484375 C128.70321958 26.30783082 131.61727684 39.95697802 131.50120544 55.40132141 C131.50510795 56.80770067 131.51075595 58.21407596 131.51797634 59.62044209 C131.53261341 63.44826076 131.52262055 67.27566312 131.50823963 71.10346782 C131.49706584 75.24607138 131.50909363 79.38861956 131.51808167 83.53121948 C131.53197387 91.63288677 131.52448721 99.73439758 131.50940608 107.83605734 C131.49249101 117.28506931 131.49576329 126.73404288 131.49950016 136.18306532 C131.50537165 153.05298323 131.49123648 169.9228264 131.46655273 186.79272461 C131.44264554 203.13389896 131.43554496 219.47497341 131.44604492 235.81616211 C131.45747617 253.63847721 131.45935609 271.46074616 131.44494683 289.28306073 C131.4434211 291.18674067 131.44190075 293.09042062 131.44038582 294.99410057 C131.439628 295.93057594 131.43887019 296.8670513 131.43808941 297.83190471 C131.43336272 304.40589609 131.4351866 310.97986675 131.43945122 317.5538578 C131.44439821 325.57645984 131.43830381 333.59896775 131.41855692 341.62154833 C131.40874211 345.70862872 131.40351621 349.79556638 131.41144943 353.88265419 C131.41858361 357.63512142 131.41152421 361.38730259 131.3938458 365.1397325 C131.38798019 367.1165751 131.39654719 369.09344496 131.40589231 371.07027417 C131.32000958 383.40000358 129.89634239 396.00360583 124 407 C123.50628906 408.01578125 123.01257813 409.0315625 122.50390625 410.078125 C118.65799274 417.71665993 114.21695946 424.08988618 108 430 C107.67 430 107.34 430 107 430 C107 387.43 107 344.86 107 301 C99.08 306.28 91.16 311.56 83 317 C75.92420951 318.34660373 70.52278578 319.01911674 63.578125 318.703125 C61.84761692 318.68331429 60.11702119 318.6701941 58.38641357 318.66326904 C54.81099852 318.63316336 51.24226001 318.55243417 47.66894531 318.42675781 C43.12344465 318.26701441 38.58219114 318.19604232 34.03419876 318.15752029 C29.63162197 318.1174383 25.23002666 318.03838698 20.828125 317.953125 C19.6018829 317.93275051 19.6018829 317.93275051 18.35086823 317.91196442 C3.17682448 317.607318 -9.28168874 315.05618456 -20.77734375 304.34375 C-29.99888891 294.3948056 -31.48173565 283.66774614 -31.2734375 270.71875 C-30.8538268 260.14954592 -25.50504192 252.09241538 -17.86328125 245.0234375 C-9.4830565 238.14960568 -1.28127531 234.76045935 9.5246582 235.03271484 C11.0874152 235.06214783 12.65018568 235.09087172 14.21296692 235.11898804 C15.04054819 235.13501446 15.86812946 235.15104088 16.72078896 235.16755295 C22.08674518 235.25778562 27.45353393 235.27544819 32.82011127 235.30389977 C37.5075343 235.33275166 42.19155104 235.38784132 46.87768555 235.50390625 C51.43519567 235.61531821 55.98804885 235.6496009 60.54683495 235.63640213 C62.26142369 235.64425155 63.97614398 235.67777479 65.68959999 235.74058151 C78.71001785 236.19455405 91.09244194 232.95188664 101.41239929 224.70880127 C110.05547516 215.79924983 108.88259813 202.50498357 108.73406982 190.87553406 C108.66602482 188.07353249 108.58343769 185.27229768 108.49671841 182.47081542 C108.37048546 177.63804307 108.37265056 172.80518558 108.35919189 167.97102356 C108.31882374 159.86154075 108.19425457 151.75709009 108.00976562 143.6496582 C107.75034859 132.23798987 107.65308961 120.82899031 107.58357382 109.41482389 C107.52893746 101.47802153 107.4343514 93.54161435 107.33307743 85.60528779 C107.30895067 83.68939267 107.28605592 81.77348165 107.26439571 79.85755706 C107.20163949 74.39645217 107.11389463 68.93691996 106.98628616 63.47692871 C106.95111094 61.82840085 106.92391514 60.17967907 106.90556717 58.53087807 C106.78767167 48.63681233 106.33968146 39.6730288 99.18723679 32.07406902 C93.62982616 26.88940971 88.41940058 25.70283075 80.9050293 25.68115234 C80.10450638 25.67110672 79.30398346 25.6610611 78.47920227 25.65071106 C75.84421478 25.61992341 73.20932871 25.60285629 70.57421875 25.5859375 C68.74289582 25.56722229 66.91158147 25.54764861 65.08027649 25.5272522 C60.26843331 25.47596228 55.45656219 25.43631972 50.64459229 25.39910889 C45.73109033 25.35904958 40.81770433 25.30796601 35.90429688 25.2578125 C26.26961274 25.16109038 16.63486308 25.07667367 7 25 C6.0197441 21.58364488 5.04098554 18.16686255 4.0625 14.75 C3.64581055 13.29787109 3.64581055 13.29787109 3.22070312 11.81640625 C2.95322266 10.88183594 2.68574219 9.94726562 2.41015625 8.984375 C2.16402588 8.12553711 1.91789551 7.26669922 1.66430664 6.38183594 C1.07304813 4.26191016 0.52151657 2.13800154 0 0 Z " fill="#FDFEFD" transform="translate(730,352)"/>
<path d="M0 0 C19.6104644 1.43240782 39.26071189 5.04106319 58 11 C58.9595459 11.29326172 59.9190918 11.58652344 60.90771484 11.88867188 C112.42544325 27.68161622 155.78869169 55.51768384 195 92 C193.66083351 96.01749947 191.77787664 96.70434822 188.25 99 C177.06752419 106.47987531 164.51325766 115.73011351 157 127 C151.75740074 126.42202213 147.1448021 125.11422172 142.1875 123.3125 C110.89417941 112.50309693 77.76034079 108.77670926 44.8125 108.75 C43.5063121 108.74848938 43.5063121 108.74848938 42.17373657 108.74694824 C15.14928973 108.76793259 -10.41378475 112.56496232 -36.50585938 119.42529297 C-37.69211914 119.73297607 -37.69211914 119.73297607 -38.90234375 120.046875 C-39.59835693 120.23088867 -40.29437012 120.41490234 -41.01147461 120.60449219 C-43 121 -43 121 -47 121 C-45.96877323 80.12592079 -22.49315327 33.04549678 0 0 Z " fill="#25711C" transform="translate(307,446)"/>
<path d="M0 0 C0.36351562 1.22332031 0.72703125 2.44664062 1.1015625 3.70703125 C3.68947764 12.38876068 6.3118151 21.05582387 9.0625 29.6875 C11.19078578 36.36931144 13.22144063 43.07249038 15.17822266 49.80639648 C16.53859714 54.47418823 17.9670956 59.11580368 19.4375 63.75 C21.73841866 71.00279617 23.82625021 78.31081603 25.85717773 85.64355469 C26.98015769 89.64952905 28.17027695 93.55868648 29.6796875 97.4375 C31 101 31 101 31 104 C-62.39 104 -155.78 104 -252 104 C-249.9806343 101.9806343 -248.76155361 101.34497476 -246.16918945 100.28271484 C-244.97444756 99.78884781 -244.97444756 99.78884781 -243.75556946 99.28500366 C-242.88361435 98.93056183 -242.01165924 98.57612 -241.11328125 98.2109375 C-240.20172775 97.8357901 -239.29017426 97.4606427 -238.35099792 97.0741272 C-235.34008787 95.83634297 -232.32631635 94.60568897 -229.3125 93.375 C-227.20684409 92.51087259 -225.10137729 91.64628423 -222.99609375 90.78125 C-217.66210184 88.59085504 -212.32583542 86.40606429 -206.98883057 84.22302246 C-202.62027579 82.43542009 -198.25339881 80.64373845 -193.88671875 78.8515625 C-189.18178425 76.92076462 -184.4767388 74.99024356 -179.77075195 73.06201172 C-167.17074832 67.8982247 -154.58405321 62.70252076 -142 57.5 C-127.05632241 51.32195931 -112.10488214 45.1635184 -97.1413269 39.03378296 C-84.59574011 33.89399672 -72.06302133 28.72359295 -59.53479004 23.54165649 C-31.19826248 11.82341015 -31.19826248 11.82341015 -17.34542847 6.16854858 C-15.96076401 5.6028695 -14.57657858 5.03601628 -13.19290161 4.46792603 C-11.32270068 3.70047857 -9.45047321 2.93797498 -7.578125 2.17578125 C-6.54075195 1.75208252 -5.50337891 1.32838379 -4.43457031 0.8918457 C-2 0 -2 0 0 0 Z " fill="#FDFDFC" transform="translate(686,285)"/>
<path d="M0 0 C1.0858136 -0.0061734 2.1716272 -0.0123468 3.29034424 -0.01870728 C23.94880421 -0.09420564 44.59495141 1.36943318 64.6875 6.4375 C62.90835539 11.36742025 60.36377156 15.84224896 57.875 20.4375 C53.8587017 27.93897403 50.43900355 35.37125012 47.6875 43.4375 C46.84046509 43.51883179 46.84046509 43.51883179 45.97631836 43.60180664 C-0.94185757 48.31186577 -47.55953835 63.14445909 -87.52734375 88.44140625 C-89.3125 89.4375 -89.3125 89.4375 -91.3125 89.4375 C-91.61781242 79.00342218 -90.76757699 69.11128006 -89.25 58.8125 C-89.1425647 58.06291016 -89.03512939 57.31332031 -88.92443848 56.54101562 C-86.62255402 40.62575449 -83.40570372 24.71711116 -78.3125 9.4375 C-76.65551758 8.70141602 -76.65551758 8.70141602 -74.45703125 8.19140625 C-73.62478027 7.99571045 -72.7925293 7.80001465 -71.93505859 7.59838867 C-71.00773926 7.40092041 -70.08041992 7.20345215 -69.125 7 C-68.13580566 6.78899658 -67.14661133 6.57799316 -66.12744141 6.3605957 C-62.8609612 5.68959803 -59.58890034 5.05815028 -56.3125 4.4375 C-55.27496582 4.23415039 -54.23743164 4.03080078 -53.16845703 3.82128906 C-35.47977642 0.49698525 -17.94915864 0.0431185 0 0 Z " fill="#2C7821" transform="translate(386.3125,581.5625)"/>
<path d="M0 0 C8.58 0 17.16 0 26 0 C43.5546875 31.34765625 43.5546875 31.34765625 45.28100586 34.43041992 C46.43540613 36.49181384 47.58986663 38.55317404 48.74438477 40.61450195 C51.67604154 45.84899045 54.60664096 51.08406573 57.53515625 56.3203125 C63.31927098 66.66044633 69.11309033 76.9949984 74.9375 87.3125 C75.74525879 88.74396362 75.74525879 88.74396362 76.56933594 90.2043457 C79.94778994 96.17783644 83.38218892 102.11089445 86.92578125 107.98828125 C88 110 88 110 88 112 C78.76 112 69.52 112 60 112 C52.29389776 99.00539622 45.70113242 85.54187176 39 72 C21.18 71.67 3.36 71.34 -15 71 C-15.66 72.98 -16.32 74.96 -17 77 C-17.98731574 79.08969775 -19.01753613 81.15947969 -20.08203125 83.2109375 C-20.68466797 84.37367188 -21.28730469 85.53640625 -21.90820312 86.734375 C-22.22152588 87.33314453 -22.53484863 87.93191406 -22.85766602 88.54882812 C-23.8048225 90.36031637 -24.74371952 92.17590364 -25.68164062 93.9921875 C-26.88679907 96.30773103 -28.11139725 98.61328243 -29.35717773 100.90722656 C-30.99372313 103.88146161 -30.99372313 103.88146161 -32.11352539 106.61621094 C-33.21065873 108.95282802 -33.9845364 110.37993989 -36 112 C-40.31296246 112.9594653 -44.42259101 112.75577061 -48.8125 112.5 C-49.98232422 112.46390625 -51.15214844 112.4278125 -52.35742188 112.390625 C-55.24161831 112.29644716 -58.11913451 112.16507439 -61 112 C-59.67977581 108.54935291 -58.17793551 105.31759724 -56.41796875 102.0703125 C-55.90492188 101.12220703 -55.391875 100.17410156 -54.86328125 99.19726562 C-54.31027344 98.18341797 -53.75726563 97.16957031 -53.1875 96.125 C-52.61 95.06216797 -52.0325 93.99933594 -51.4375 92.90429688 C-47.0024948 84.77024721 -42.45944133 76.70095648 -37.87768555 68.64892578 C-33.43731634 60.82583043 -29.150572 52.92576005 -24.88818359 45.00463867 C-20.52433155 36.91627124 -16.02335663 28.91121354 -11.48168945 20.92163086 C-7.55055483 13.99945517 -3.73256707 7.03111471 0 0 Z " fill="#3B872C" transform="translate(531,573)"/>
<path d="M0 0 C-0.43294522 4.11297958 -0.88620722 8.21091234 -1.4765625 12.3046875 C-1.64929688 13.50351562 -1.82203125 14.70234375 -2 15.9375 C-2.19335938 17.22011719 -2.38671875 18.50273438 -2.5859375 19.82421875 C-2.95991835 22.80113477 -2.97162448 25.58864427 -2.7890625 28.58203125 C-2.26224696 39.89850267 -2.26224696 39.89850267 -5.38330078 43.67285156 C-9.1713655 46.90886545 -13.49344627 49.25162454 -17.82226562 51.68164062 C-21.33413535 53.80766041 -24.36646994 56.41451729 -27.4375 59.125 C-28.0162085 59.63281006 -28.59491699 60.14062012 -29.19116211 60.66381836 C-30.80617764 62.09651968 -32.40643204 63.54351316 -34 65 C-34.83144531 65.75925781 -35.66289062 66.51851562 -36.51953125 67.30078125 C-51.12634648 81.29364978 -61.37356007 98.90092985 -70 117 C-70.66 117 -71.32 117 -72 117 C-74.08879206 109.35528455 -76.0848404 101.69006303 -78 94 C-78.19094238 93.24412598 -78.38188477 92.48825195 -78.57861328 91.70947266 C-82.96226981 73.71410187 -84.35836315 48.88381962 -79 31 C-75.16162715 26.90025935 -69.83578499 24.73967467 -64.8125 22.375 C-63.90048828 21.94477539 -62.98847656 21.51455078 -62.04882812 21.07128906 C-16.53974049 0 -16.53974049 0 0 0 Z " fill="#348027" transform="translate(428,642)"/>
<path d="M0 0 C5.01639444 2.85782471 8.46520798 7.03370164 10.6875 12.375 C11.63077632 19.43860405 10.96589811 25.56482973 6.6875 31.375 C2.1669735 36.35265839 -2.96394351 38.3531458 -9.5625 38.875 C-15.45579779 38.69581189 -19.93553069 36.21819257 -24.3125 32.375 C-27.78175601 27.70783944 -30.23671085 22.36178242 -29.79296875 16.44921875 C-28.39164173 10.39958748 -25.74906574 5.03076273 -20.6875 1.3125 C-14.16967438 -2.42921471 -6.96046096 -3.18910854 0 0 Z " fill="#489535" transform="translate(748.3125,609.625)"/>
<path d="M0 0 C2.47091427 3.10009296 4.31331318 6.30767071 6.13671875 9.82421875 C6.71357422 10.93474609 7.29042969 12.04527344 7.88476562 13.18945312 C8.47966797 14.34380859 9.07457031 15.49816406 9.6875 16.6875 C10.29400391 17.85345703 10.90050781 19.01941406 11.52539062 20.22070312 C16 28.86289019 16 28.86289019 16 30 C5.44 30 -5.12 30 -16 30 C-14.52732833 25.58198498 -13.24253357 22.35841143 -10.99609375 18.41796875 C-10.42052734 17.40412109 -9.84496094 16.39027344 -9.25195312 15.34570312 C-8.65318359 14.30349609 -8.05441406 13.26128906 -7.4375 12.1875 C-6.53354492 10.59518555 -6.53354492 10.59518555 -5.61132812 8.97070312 C-1.15715681 1.15715681 -1.15715681 1.15715681 0 0 Z " fill="#FBFDFB" transform="translate(543,595)"/>
</svg>
